<svg xmlns="http://www.w3.org/2000/svg" width="192" height="192" viewBox="0 0 192 192">
  <defs>
    <clipPath id="clip">
      <rect width="192" height="192" rx="42"/>
    </clipPath>
  </defs>
  <rect width="192" height="192" rx="42" fill="#4A5D23"/>
  <g clip-path="url(#clip)" opacity="0.5">
    <ellipse cx="30" cy="38" rx="45" ry="30" fill="#3B4A1C" transform="rotate(-20 30 38)"/>
    <ellipse cx="150" cy="22" rx="38" ry="26" fill="#5C6B2F" transform="rotate(15 150 22)"/>
    <ellipse cx="113" cy="75" rx="53" ry="22" fill="#3B4A1C" transform="rotate(-10 113 75)"/>
    <ellipse cx="22" cy="131" rx="49" ry="26" fill="#5C6B2F" transform="rotate(25 22 131)"/>
    <ellipse cx="169" cy="120" rx="41" ry="34" fill="#3B4A1C" transform="rotate(-15 169 120)"/>
    <ellipse cx="75" cy="169" rx="56" ry="22" fill="#5C6B2F" transform="rotate(10 75 169)"/>
    <ellipse cx="56" cy="68" rx="22" ry="38" fill="#6B7B3A" transform="rotate(40 56 68)"/>
    <ellipse cx="143" cy="158" rx="30" ry="19" fill="#6B7B3A" transform="rotate(-25 143 158)"/>
    <ellipse cx="94" cy="30" rx="26" ry="15" fill="#2E3D15"/>
    <ellipse cx="165" cy="75" rx="22" ry="30" fill="#2E3D15" transform="rotate(-35 165 75)"/>
  </g>
  <text x="50%" y="52%" text-anchor="middle" dominant-baseline="middle" font-family="Arial,Helvetica,sans-serif" font-weight="900" font-size="75" fill="white" letter-spacing="-3">PX</text>
  <rect x="58" y="135" width="75" height="3" rx="1.5" fill="white" opacity="0.6"/>
</svg>
